<?xml version="1.0" encoding="UTF-8" standalone="no"?>
<!-- Created with Inkscape (http://www.inkscape.org/) -->

<svg
   width="603.32812"
   height="603.32617"
   viewBox="0 0 159.63057 159.63005"
   version="1.1"
   id="svg1"
   xmlns="http://www.w3.org/2000/svg"
   xmlns:svg="http://www.w3.org/2000/svg">
  <defs
     id="defs1" />
  <g
     id="layer1"
     transform="translate(-68.684697,-25.185026)">
    <path
       id="path4"
       stroke="#fff"
       style="opacity:1;fill:none;fill-opacity:1;stroke-width:3.96875;stroke-linecap:square;stroke-linejoin:round;stroke-dasharray:none;paint-order:fill markers stroke"
       d="m 148.49998,27.169401 a 77.830818,77.830818 0 0 0 -9.42992,0.674378 l -5.53454,15.563391 a 63.528061,63.528061 0 0 0 -18.06505,7.430554 L 100.69256,43.813346 A 77.830818,77.830818 0 0 0 87.313017,57.192892 l 7.024894,14.777909 a 63.528061,63.528061 0 0 0 -7.431071,18.06453 l -15.563391,5.534546 a 77.830818,77.830818 0 0 0 -0.674377,9.429913 77.830818,77.830818 0 0 0 0.674377,9.43043 l 15.563391,5.53455 a 63.528061,63.528061 0 0 0 7.431071,18.06453 l -7.024894,14.77791 a 77.830818,77.830818 0 0 0 13.379543,13.37955 l 14.77791,-7.0249 a 63.528061,63.528061 0 0 0 18.06505,7.43107 l 5.53454,15.56339 a 77.830818,77.830818 0 0 0 9.42992,0.67438 77.830818,77.830818 0 0 0 9.42992,-0.67438 l 5.53454,-15.56339 a 63.528061,63.528061 0 0 0 18.06505,-7.43107 l 14.77791,7.0249 a 77.830818,77.830818 0 0 0 13.37954,-13.37955 l -7.02489,-14.77791 a 63.528061,63.528061 0 0 0 7.43107,-18.06453 l 15.56339,-5.53455 a 77.830818,77.830818 0 0 0 0.67438,-9.43043 77.830818,77.830818 0 0 0 -0.59325,-9.400974 l -15.49569,-5.510775 a 63.528061,63.528061 0 0 0 -7.53959,-18.201989 l 7.06055,-14.853357 A 77.830818,77.830818 0 0 0 196.46708,43.737382 l -14.85284,7.060034 a 63.528061,63.528061 0 0 0 -18.20251,-7.539591 l -5.51026,-15.495178 a 77.830818,77.830818 0 0 0 -9.40149,-0.593246 z m 0,35.879464 a 41.951107,41.951107 0 0 1 41.95093,41.950925 41.951107,41.951107 0 0 1 -41.95093,41.95145 41.951107,41.951107 0 0 1 -41.95093,-41.95145 41.951107,41.951107 0 0 1 41.95093,-41.950925 z" />
    <path
       stroke="#fff"
       style="opacity:1;fill:none;fill-opacity:1;stroke-width:4.52708;stroke-linecap:square;stroke-linejoin:round;stroke-dasharray:none;paint-order:fill markers stroke"
       id="path5"
       d="m 167.28032,130.88136 c -0.84816,0.61545 -17.74229,-9.2833 -18.79022,-9.28393 -1.04793,-6.2e-4 -17.95383,9.87801 -18.80126,9.26154 -0.84742,-0.61646 3.34628,-19.74261 3.02304,-20.73944 -0.32323,-0.99684 -14.94257,-14.022642 -14.61815,-15.019091 0.32442,-0.996448 19.81039,-2.918305 20.65855,-3.533758 0.84817,-0.615453 8.71882,-18.54447 9.76675,-18.543846 1.04793,6.24e-4 8.89722,17.939002 9.74465,18.555465 0.84742,0.616463 20.3311,2.561525 20.65433,3.558359 0.32324,0.996834 -14.31161,14.005221 -14.63603,15.001671 -0.32442,0.99644 3.8465,20.12758 2.99834,20.74303 z"
       transform="matrix(0.87666957,0,0,0.87666957,18.342209,12.924242)" />
  </g>
</svg>
