<?xml version="1.0" encoding="UTF-8" standalone="no"?>
<!-- Created with Inkscape (http://www.inkscape.org/) -->

<svg
   width="42.194996mm"
   height="42.194992mm"
   viewBox="0 0 42.194996 42.194992"
   version="1.1"
   id="svg1"
   xmlns="http://www.w3.org/2000/svg"
   xmlns:svg="http://www.w3.org/2000/svg">
  <defs
     id="defs1" />
  <circle
     style="fill:#ffcc00;fill-opacity:1;stroke:none;stroke-width:0.230099;stroke-dasharray:none"
     id="path19-5"
     cx="21.097517"
     cy="21.097504"
     r="21.097496" />
  <path
     id="path1-8"
     style="fill:#1a1a1a;fill-opacity:1;stroke:none;stroke-width:0.367331;stroke-dasharray:none;stroke-opacity:1"
     d="M 21.09753,2.3221928 A 18.775322,18.775322 0 0 0 19.161011,2.4606591 L 17.612189,6.815831 A 14.733735,14.733735 0 0 0 13.450877,8.528517 L 9.2838085,6.5476518 A 18.775322,18.775322 0 0 0 6.547623,9.2836897 l 1.9808652,4.1672043 a 14.733735,14.733735 0 0 0 -1.7126747,4.161324 l -4.3551832,1.548674 a 18.775322,18.775322 0 0 0 -0.1384663,1.936519 18.775322,18.775322 0 0 0 0.1384663,1.93653 l 4.3551832,1.548811 a 14.733735,14.733735 0 0 0 1.7126747,4.161324 L 6.547623,32.91128 a 18.775322,18.775322 0 0 0 2.7361855,2.736038 l 4.1672045,-1.980854 a 14.733735,14.733735 0 0 0 4.161176,1.712675 l 1.548822,4.355172 a 18.775322,18.775322 0 0 0 1.936519,0.138466 18.775322,18.775322 0 0 0 1.93653,-0.138466 l 1.548822,-4.355172 a 14.733735,14.733735 0 0 0 4.161165,-1.712675 l 4.167204,1.980854 a 18.775322,18.775322 0 0 0 2.736186,-2.736038 l -1.980865,-4.167204 a 14.733735,14.733735 0 0 0 1.712686,-4.161324 l 4.355172,-1.548811 a 18.775322,18.775322 0 0 0 0.138466,-1.93653 18.775322,18.775322 0 0 0 -0.100591,-1.923031 l -4.358624,-1.549969 a 14.733735,14.733735 0 0 0 -1.73722,-4.19418 L 35.662355,9.2522748 A 18.775322,18.775322 0 0 0 32.942814,6.5325858 L 28.764846,8.5186169 A 14.733735,14.733735 0 0 0 24.57053,6.7812484 L 23.020561,2.4227841 A 18.775322,18.775322 0 0 0 21.097519,2.3221928 Z m 0,8.4971152 A 10.278173,10.278173 0 0 1 31.375781,21.097411 10.278173,10.278173 0 0 1 21.09753,31.375662 10.278173,10.278173 0 0 1 10.819427,21.097411 10.278173,10.278173 0 0 1 21.09753,10.819308 Z" />
  <path
     id="path1-8-7"
     style="fill:#1a1a1a;fill-opacity:1;stroke:none;stroke-width:0.159198;stroke-dasharray:none;stroke-opacity:1"
     d="m 21.09752,12.960429 a 8.1370694,8.1370694 0 0 0 -0.839272,0.05999 l -0.67124,1.887498 a 6.3854787,6.3854787 0 0 0 -1.803493,0.742263 l -1.805959,-0.858487 a 8.1370694,8.1370694 0 0 0 -1.185844,1.185781 l 0.858488,1.806033 a 6.3854787,6.3854787 0 0 0 -0.742263,1.803482 l -1.887498,0.671177 a 8.1370694,8.1370694 0 0 0 -0.05998,0.839272 8.1370694,8.1370694 0 0 0 0.05998,0.839273 l 1.887498,0.671251 a 6.3854787,6.3854787 0 0 0 0.742263,1.803481 l -0.858488,1.806021 a 8.1370694,8.1370694 0 0 0 1.185844,1.185794 l 1.80602,-0.8585 a 6.3854787,6.3854787 0 0 0 1.803432,0.742263 l 0.67124,1.887498 a 8.1370694,8.1370694 0 0 0 0.839272,0.05999 8.1370694,8.1370694 0 0 0 0.839272,-0.05999 l 0.67124,-1.887498 a 6.3854787,6.3854787 0 0 0 1.803419,-0.742263 l 1.806033,0.8585 A 8.1370694,8.1370694 0 0 0 27.403328,26.21746 L 26.54484,24.411439 a 6.3854787,6.3854787 0 0 0 0.742263,-1.803481 l 1.887498,-0.671251 a 8.1370694,8.1370694 0 0 0 0.05999,-0.839273 8.1370694,8.1370694 0 0 0 -0.04355,-0.833423 l -1.888992,-0.671749 a 6.3854787,6.3854787 0 0 0 -0.752891,-1.81772 l 0.860665,-1.8107 A 8.1370694,8.1370694 0 0 0 26.23119,14.785155 l -1.8107,0.860727 a 6.3854787,6.3854787 0 0 0 -1.817785,-0.752953 l -0.671749,-1.88893 a 8.1370694,8.1370694 0 0 0 -0.833424,-0.04355 z m 0,3.68258 a 4.4544755,4.4544755 0 0 1 4.454499,4.454449 4.4544755,4.4544755 0 0 1 -4.454499,4.454513 4.4544755,4.4544755 0 0 1 -4.45445,-4.454513 4.4544755,4.4544755 0 0 1 4.45445,-4.454449 z" />
</svg>
