<?xml version="1.0" standalone="no"?>
<!DOCTYPE svg PUBLIC "-//W3C//DTD SVG 20010904//EN"
 "http://www.w3.org/TR/2001/REC-SVG-20010904/DTD/svg10.dtd">
<svg version="1.0" xmlns="http://www.w3.org/2000/svg"
 width="688.000000pt" height="688.000000pt" viewBox="0 0 688.000000 688.000000"
 preserveAspectRatio="xMidYMid meet">

<g transform="translate(0.000000,688.000000) scale(0.100000,-0.100000)"
fill="#000000" stroke="none">
<path d="M1215 6058 c-139 -26 -278 -136 -345 -272 -55 -112 -70 -214 -47
-320 29 -134 92 -233 199 -312 229 -168 558 -112 713 122 48 72 73 137 85 222
47 336 -265 625 -605 560z m247 -190 c137 -63 219 -224 189 -372 -16 -76 -32
-108 -87 -166 -118 -126 -329 -141 -457 -34 -112 94 -156 257 -104 385 43 103
106 164 210 201 72 26 174 20 249 -14z"/>
<path d="M5518 6051 c-26 -13 -76 -86 -250 -366 -144 -231 -218 -359 -218
-377 0 -15 11 -40 24 -55 l24 -28 450 0 c442 0 451 0 479 21 31 24 40 61 22
96 -21 41 -421 682 -436 699 -21 25 -59 28 -95 10z m170 -434 c67 -107 124
-202 128 -211 6 -15 -17 -16 -261 -16 -232 0 -266 2 -261 15 14 37 259 415
266 410 4 -2 62 -92 128 -198z"/>
<path d="M4327 5889 c-31 -18 -47 -73 -47 -159 l0 -80 -1100 0 -1100 0 0 -85
0 -85 1100 0 1100 0 0 -85 c0 -105 16 -148 59 -163 17 -6 39 -8 49 -5 28 10
435 254 459 276 26 23 32 51 20 88 -6 21 -59 57 -244 168 -129 77 -245 141
-257 141 -11 0 -29 -5 -39 -11z m223 -278 l81 -49 -84 -51 c-47 -28 -88 -51
-91 -51 -3 0 -6 45 -6 100 0 56 4 100 9 100 6 0 46 -22 91 -49z"/>
<path d="M3285 5130 c-128 -12 -198 -28 -220 -50 -16 -17 -21 -37 -23 -104 -5
-100 -13 -111 -112 -145 -36 -13 -91 -36 -123 -52 -85 -43 -108 -39 -176 26
-80 76 -101 75 -212 -7 -110 -82 -248 -221 -332 -332 -87 -116 -88 -133 -12
-216 65 -71 69 -94 26 -178 -16 -31 -41 -92 -56 -135 -15 -43 -35 -82 -44 -86
-9 -5 -54 -11 -100 -13 -71 -4 -87 -8 -102 -27 -39 -48 -65 -296 -50 -482 21
-258 33 -279 157 -279 90 0 111 -15 139 -101 10 -30 33 -87 52 -128 18 -40 33
-84 33 -97 0 -15 -20 -46 -55 -84 -82 -90 -78 -112 56 -275 99 -121 256 -263
355 -321 38 -22 48 -24 77 -15 18 6 55 34 82 61 58 59 74 61 153 21 31 -16 91
-41 132 -55 106 -39 110 -43 110 -138 0 -74 2 -82 28 -107 38 -39 155 -56 377
-56 229 1 361 25 379 70 3 9 6 49 6 89 0 92 12 108 97 137 37 12 100 37 141
55 40 19 82 34 93 34 11 0 47 -26 80 -57 82 -78 99 -77 215 9 105 78 279 254
349 352 67 94 66 116 -8 196 -31 34 -57 70 -57 82 0 11 20 64 44 117 24 53 50
115 57 139 17 59 39 72 121 72 112 0 126 14 150 145 17 94 16 388 -1 498 -19
126 -33 141 -143 145 -97 5 -110 13 -134 86 -9 28 -34 89 -55 135 -22 46 -39
93 -39 105 0 13 19 41 46 66 58 57 77 93 69 130 -13 57 -197 269 -335 384
-167 139 -191 145 -279 61 -65 -62 -88 -67 -153 -34 -22 11 -82 37 -132 56
-117 44 -126 55 -126 149 0 101 -17 120 -125 139 -103 18 -318 26 -420 15z
m356 -175 c11 -4 18 -23 22 -57 12 -99 75 -171 182 -208 32 -11 99 -39 149
-62 49 -23 111 -43 137 -46 58 -5 126 16 178 57 l38 30 39 -31 c63 -50 192
-179 236 -235 l40 -52 -35 -41 c-67 -79 -73 -169 -17 -287 17 -37 45 -104 62
-148 50 -134 108 -189 214 -203 l59 -7 7 -55 c8 -72 8 -271 0 -335 l-7 -50
-50 -6 c-102 -13 -179 -76 -211 -174 -9 -27 -37 -95 -61 -149 -68 -153 -68
-227 1 -318 l35 -45 -31 -39 c-48 -60 -136 -150 -211 -215 l-68 -60 -39 31
c-92 73 -178 76 -319 10 -48 -22 -114 -49 -146 -60 -109 -38 -171 -111 -182
-213 l-6 -54 -60 -7 c-78 -8 -247 -8 -326 0 -60 7 -61 7 -61 38 0 112 -73 203
-193 241 -29 10 -91 35 -138 56 -47 21 -107 42 -132 45 -63 9 -133 -12 -179
-54 l-38 -34 -34 25 c-65 50 -150 133 -217 211 l-68 80 26 30 c67 80 80 171
37 271 -14 33 -46 109 -70 169 -24 60 -56 123 -71 139 -37 39 -118 77 -165 77
-50 0 -53 12 -53 225 0 208 4 225 48 225 95 0 188 69 222 165 10 28 38 97 63
154 69 159 67 241 -7 331 l-29 35 35 45 c55 68 161 175 224 225 l56 44 36 -30
c67 -55 162 -73 237 -45 19 8 71 30 115 49 44 19 102 42 130 52 93 34 165 131
165 223 0 34 6 37 80 46 49 6 332 -1 351 -9z"/>
<path d="M3214 4520 c-265 -56 -497 -206 -665 -430 -61 -82 -145 -262 -176
-375 -24 -91 -27 -116 -27 -275 0 -159 3 -184 27 -275 120 -443 502 -768 960
-814 603 -61 1139 385 1197 996 41 437 -183 849 -581 1067 -206 113 -499 155
-735 106z m401 -162 c295 -49 566 -274 686 -569 184 -451 -15 -965 -454 -1179
-150 -73 -249 -95 -422 -94 -110 1 -157 6 -220 23 -343 92 -608 371 -680 717
-22 103 -22 275 0 379 58 275 226 497 478 630 190 100 389 131 612 93z"/>
<path d="M3400 4108 c-17 -9 -48 -58 -102 -163 -42 -82 -78 -153 -80 -157 -2
-4 -84 -19 -183 -34 -191 -27 -216 -37 -229 -90 -8 -30 14 -75 51 -104 15 -12
70 -62 122 -112 l94 -92 -28 -159 c-15 -88 -27 -171 -27 -185 0 -33 44 -72 81
-72 15 0 98 36 184 81 l157 80 158 -80 c86 -45 170 -81 185 -81 34 0 77 40 77
72 0 13 -13 96 -29 185 l-28 162 128 122 c129 120 147 147 135 194 -10 40 -43
52 -201 75 -82 11 -163 23 -178 26 -24 5 -37 24 -101 152 -41 81 -82 155 -92
164 -27 24 -65 30 -94 16z m90 -358 c27 -55 60 -106 72 -114 13 -8 66 -20 118
-27 52 -7 101 -15 108 -19 10 -5 -11 -30 -67 -82 -55 -51 -83 -84 -87 -105 -3
-16 1 -68 10 -115 9 -46 16 -92 16 -100 0 -12 -27 -2 -105 38 -58 30 -112 54
-120 54 -9 0 -61 -23 -116 -51 -56 -27 -103 -49 -105 -47 -2 2 5 51 15 108 10
58 16 113 13 122 -2 10 -42 53 -88 98 -46 44 -82 80 -79 80 26 0 224 34 237
41 9 5 40 56 70 114 29 58 54 105 55 105 2 0 25 -45 53 -100z"/>
<path d="M5470 3786 l0 -1184 -94 -4 c-77 -2 -100 -7 -123 -24 -56 -42 -48
-64 105 -319 152 -253 165 -267 226 -241 30 12 52 45 170 241 88 148 136 238
136 256 0 15 -11 40 -24 56 -22 26 -29 27 -125 31 l-101 4 0 1184 0 1184 -85
0 -85 0 0 -1184z m164 -1403 c-50 -87 -74 -123 -82 -123 -6 0 -88 133 -100
162 -2 4 44 8 103 8 l107 0 -28 -47z"/>
<path d="M1280 4867 c-15 -8 -73 -94 -162 -242 -151 -251 -156 -265 -102 -312
22 -21 36 -23 125 -23 l99 0 0 -1100 0 -1100 80 0 80 0 0 1099 0 1099 105 4
c92 3 107 6 127 25 42 42 32 71 -111 308 -73 121 -141 228 -153 238 -24 20
-53 22 -88 4z m93 -316 c26 -44 47 -82 47 -85 0 -3 -45 -6 -100 -6 -55 0 -100
3 -100 6 0 9 94 164 100 164 3 0 27 -36 53 -79z"/>
<path d="M839 1804 l-24 -26 -3 -449 -3 -450 30 -29 29 -30 454 0 455 0 24 26
24 26 0 455 0 455 -28 24 -28 24 -453 0 -453 0 -24 -26z m821 -474 l0 -340
-340 0 -340 0 0 340 0 340 340 0 340 0 0 -340z"/>
<path d="M5105 1816 c-67 -21 -100 -43 -149 -97 -102 -113 -100 -278 4 -454
89 -149 427 -445 510 -445 26 0 128 63 215 134 306 247 423 465 358 666 -21
65 -89 142 -157 178 -46 24 -62 27 -151 27 -89 0 -107 -3 -162 -29 -35 -16
-68 -35 -74 -42 -17 -21 -32 -17 -88 20 -79 53 -212 72 -306 42z m200 -175
c23 -10 53 -33 69 -52 15 -19 34 -42 42 -51 16 -21 83 -24 105 -5 8 6 28 29
43 51 70 95 244 103 309 15 13 -18 18 -43 18 -84 0 -97 -51 -186 -180 -316
-58 -58 -136 -127 -173 -153 l-67 -47 -76 56 c-159 117 -296 269 -330 365 -19
55 -19 133 0 171 9 16 30 39 48 49 42 26 137 26 192 1z"/>
<path d="M2251 1526 c-122 -74 -229 -143 -237 -153 -22 -29 -17 -80 10 -104
52 -45 442 -272 476 -276 29 -4 40 0 60 22 23 24 25 36 28 126 l4 99 1059 0
1059 0 0 85 0 85 -1060 0 -1060 0 0 99 c0 93 -1 100 -26 125 -47 46 -68 39
-313 -108z m167 -256 l-3 -49 -78 48 c-44 26 -79 51 -79 56 0 5 35 30 79 56
l78 48 3 -55 c2 -30 2 -77 0 -104z"/>
</g>
</svg>
